<svg width="45" height="45" viewBox="0 0 45 45" fill="none" xmlns="http://www.w3.org/2000/svg">
<path fill-rule="evenodd" clip-rule="evenodd" d="M40.5 11.25V29.25C40.5 30.4435 40.0259 31.5881 39.182 32.432C38.3381 33.2759 37.1935 33.75 36 33.75H24.75L13.5 42.75V33.75H9C7.80653 33.75 6.66193 33.2759 5.81802 32.432C4.97411 31.5881 4.5 30.4435 4.5 29.25V11.25C4.5 10.0565 4.97411 8.91193 5.81802 8.06802C6.66193 7.22411 7.80653 6.75 9 6.75H36C37.1935 6.75 38.3381 7.22411 39.182 8.06802C40.0259 8.91193 40.5 10.0565 40.5 11.25ZM15.75 18H11.25V22.5H15.75V18ZM20.25 18H24.75V22.5H20.25V18ZM33.75 18H29.25V22.5H33.75V18Z" fill="#017A5D"/>
</svg>
