<svg width="240" height="240" viewBox="0 0 240 240" fill="none" xmlns="http://www.w3.org/2000/svg">
<g clip-path="url(#clip0_750_12988)">
<path fill-rule="evenodd" clip-rule="evenodd" d="M0.500103 187.282V51.8484C0.486509 45.0443 1.81665 38.3045 4.41419 32.0157C7.01173 25.7269 10.8255 20.013 15.6368 15.2017C20.448 10.3905 26.162 6.57667 32.4507 3.97913C38.7395 1.38159 45.4793 0.0514507 52.2834 0.0650446H187.717C194.521 0.0514507 201.261 1.38159 207.549 3.97913C213.838 6.57667 219.552 10.3905 224.363 15.2017C229.175 20.013 232.988 25.7269 235.586 32.0157C238.184 38.3045 239.514 45.0443 239.5 51.8484V187.282C239.514 194.086 238.184 200.826 235.586 207.114C232.988 213.403 229.175 219.117 224.363 223.928C219.552 228.74 213.838 232.553 207.549 235.151C201.261 237.749 194.521 239.079 187.717 239.065H52.2834C38.5516 239.059 25.384 233.601 15.6741 223.891C5.9642 214.181 0.506437 201.014 0.500103 187.282Z" fill="url(#paint0_linear_750_12988)"/>
<path d="M119.919 223.05C177.117 223.05 223.485 176.682 223.485 119.484C223.485 62.2854 177.117 15.917 119.919 15.917C62.7204 15.917 16.3521 62.2854 16.3521 119.484C16.3521 176.682 62.7204 223.05 119.919 223.05Z" fill="white"/>
<path d="M147.605 81.7639C145.077 87.1834 140.199 83.3969 136.305 83.2648C125.295 83.1695 124.963 88.9035 119.48 92.4361C118.386 91.2429 116.649 90.4855 113.914 90.6359C112.018 90.7402 110.301 91.3909 109.035 92.5287C107.566 93.8074 106.494 95.5711 106.422 97.2729C108.926 96.6399 111.341 96.7507 111.885 97.9231C113.255 100.878 109.34 99.8237 106.556 100.709C106.408 100.756 106.262 100.806 106.118 100.855C105.789 101.776 105.4 102.657 105.4 103.294C105.4 105.312 107.03 104.028 107.74 105.78C107.841 106.03 108.19 106.808 109.197 107.785C109.36 107.943 114.675 103.604 114.852 103.748C113.085 107.511 110.233 108.838 109.955 108.985C107.426 110.319 104.39 111.416 103.323 113.525L103.261 113.505C103.261 113.505 99.9764 121.296 99.2704 125.164C99.3389 127.158 102.327 126.658 102.327 126.658L107.034 125.255L107.592 127.272L121.82 109.335C118.71 107.469 119.672 104.74 119.209 102.336C120.851 99.6595 121.817 98.2797 120.948 95.5863C121.796 94.7149 122.879 93.8257 124.116 93.5883C126.649 93.1024 131.263 95.5172 133.761 95.5495C137.07 95.5927 138.848 93.8472 140.234 91.7503C138.964 92.1673 138.482 92.1671 139.197 89.9563C137.509 90.5726 136.421 92.6475 133.363 92.1624C130.52 91.7115 126.209 90.85 123.828 91.6439C127.868 89.5692 131.039 87.446 135.353 86.9446C140.408 87.305 144.946 90.8643 147.605 84.9166L147.605 81.7639ZM133.461 98.0635L128.816 103.906L130.786 105.301L135.431 99.458L133.461 98.0635ZM108.988 98.2608C108.357 98.2608 107.725 98.4031 107.725 98.6876C107.983 99.038 108.891 99.3231 109.328 99.333C110.026 99.333 110.252 99.2563 110.252 98.6876C110.252 98.4031 109.62 98.2608 108.988 98.2608ZM125.763 103.876L124.369 105.564L130.213 109.623L131.607 107.935L125.763 103.876ZM125.236 108.161L104.929 133.76C104.929 133.76 103.709 134.764 104.924 135.758C106.17 136.778 107.141 135.323 107.141 135.323L127.447 109.723L125.236 108.161ZM127.49 113.152C127.49 113.152 125.027 116.349 123.773 117.93C118.754 124.255 108.802 136.59 108.537 136.763L108.545 138.708H121.561L123.391 124.982L128.709 126.135C128.709 126.135 130.842 126.363 130.755 124.489C130.205 121.896 128.466 115.574 127.49 113.152ZM124.786 118.972L125.827 121.546L124.101 121.101L124.786 118.972Z" fill="url(#paint1_linear_750_12988)"/>
<path d="M67.7922 181.928C67.354 182.497 67.4598 183.313 68.0286 183.751C68.5973 184.189 69.4136 184.083 69.8518 183.515L67.7922 181.928ZM125.103 107.545L67.7922 181.928L69.8518 183.515L127.163 109.132L125.103 107.545Z" fill="url(#paint2_linear_750_12988)"/>
<path d="M154.262 160.946L120.119 128.022" stroke="url(#paint3_linear_750_12988)" stroke-width="2.6" stroke-linecap="round"/>
<path d="M114.525 24.4358V33.0139H113.441V25.7893L111.255 26.5862V25.6077L114.355 24.4358H114.525ZM123.302 32.1233V33.0139H117.718V32.2346L120.513 29.1233C120.857 28.7405 121.122 28.4163 121.31 28.1506C121.501 27.8811 121.634 27.6409 121.708 27.4299C121.786 27.2151 121.825 26.9963 121.825 26.7737C121.825 26.4924 121.767 26.2385 121.65 26.012C121.536 25.7815 121.368 25.5979 121.146 25.4612C120.923 25.3245 120.654 25.2561 120.337 25.2561C119.958 25.2561 119.642 25.3303 119.388 25.4788C119.138 25.6233 118.95 25.8264 118.825 26.0881C118.7 26.3499 118.638 26.6506 118.638 26.9905H117.554C117.554 26.51 117.659 26.0706 117.87 25.6721C118.081 25.2737 118.394 24.9573 118.808 24.7229C119.222 24.4846 119.732 24.3655 120.337 24.3655C120.876 24.3655 121.337 24.4612 121.72 24.6526C122.103 24.8401 122.396 25.1057 122.599 25.4495C122.806 25.7893 122.909 26.1877 122.909 26.6448C122.909 26.8948 122.866 27.1487 122.781 27.4065C122.698 27.6604 122.583 27.9143 122.435 28.1682C122.29 28.4221 122.12 28.6721 121.925 28.9182C121.734 29.1643 121.529 29.4065 121.31 29.6448L119.025 32.1233H123.302Z" fill="url(#paint4_linear_750_12988)"/>
<path d="M206.346 116.58H207.12C207.499 116.58 207.811 116.517 208.057 116.392C208.307 116.263 208.493 116.089 208.614 115.871C208.739 115.648 208.801 115.398 208.801 115.121C208.801 114.792 208.747 114.517 208.637 114.294C208.528 114.072 208.364 113.904 208.145 113.791C207.926 113.677 207.649 113.621 207.313 113.621C207.008 113.621 206.739 113.681 206.505 113.802C206.274 113.919 206.092 114.087 205.96 114.306C205.831 114.525 205.766 114.783 205.766 115.08H204.682C204.682 114.646 204.792 114.251 205.01 113.896C205.229 113.541 205.536 113.257 205.93 113.046C206.329 112.835 206.79 112.73 207.313 112.73C207.829 112.73 208.28 112.822 208.667 113.005C209.053 113.185 209.354 113.455 209.569 113.814C209.784 114.169 209.891 114.613 209.891 115.144C209.891 115.359 209.84 115.589 209.739 115.835C209.641 116.078 209.487 116.304 209.276 116.515C209.069 116.726 208.799 116.9 208.467 117.037C208.135 117.169 207.737 117.236 207.272 117.236H206.346V116.58ZM206.346 117.47V116.82H207.272C207.815 116.82 208.264 116.884 208.62 117.013C208.975 117.142 209.255 117.314 209.458 117.529C209.665 117.744 209.809 117.98 209.891 118.238C209.977 118.492 210.02 118.746 210.02 119C210.02 119.398 209.952 119.751 209.815 120.06C209.682 120.369 209.493 120.63 209.247 120.845C209.005 121.06 208.719 121.222 208.391 121.332C208.063 121.441 207.706 121.496 207.319 121.496C206.948 121.496 206.598 121.443 206.27 121.337C205.946 121.232 205.659 121.08 205.409 120.88C205.159 120.677 204.964 120.429 204.823 120.136C204.682 119.839 204.612 119.501 204.612 119.123H205.696C205.696 119.419 205.76 119.679 205.889 119.902C206.022 120.125 206.21 120.298 206.452 120.423C206.698 120.544 206.987 120.605 207.319 120.605C207.651 120.605 207.936 120.548 208.174 120.435C208.417 120.318 208.602 120.142 208.731 119.908C208.864 119.673 208.93 119.378 208.93 119.023C208.93 118.667 208.856 118.376 208.708 118.15C208.559 117.919 208.348 117.75 208.075 117.64C207.805 117.527 207.487 117.47 207.12 117.47H206.346Z" fill="url(#paint5_linear_750_12988)"/>
<path d="M29.1136 120.47H29.225C29.85 120.47 30.3578 120.382 30.7484 120.207C31.139 120.031 31.4398 119.794 31.6508 119.498C31.8617 119.201 32.0062 118.867 32.0844 118.496C32.1625 118.121 32.2015 117.736 32.2015 117.341V116.035C32.2015 115.648 32.1566 115.304 32.0668 115.003C31.9808 114.703 31.8597 114.451 31.7035 114.248C31.5511 114.044 31.3773 113.89 31.182 113.785C30.9867 113.679 30.7797 113.626 30.5609 113.626C30.3109 113.626 30.0863 113.677 29.8871 113.779C29.6918 113.876 29.5258 114.015 29.389 114.195C29.2562 114.375 29.1547 114.585 29.0844 114.828C29.014 115.07 28.9789 115.333 28.9789 115.619C28.9789 115.873 29.0101 116.119 29.0726 116.357C29.1351 116.595 29.2308 116.81 29.3597 117.001C29.4886 117.193 29.6488 117.345 29.8402 117.458C30.0355 117.568 30.264 117.623 30.5258 117.623C30.7679 117.623 30.9945 117.576 31.2054 117.482C31.4203 117.384 31.6097 117.253 31.7738 117.089C31.9418 116.921 32.0746 116.732 32.1722 116.521C32.2738 116.31 32.3324 116.089 32.348 115.859H32.8636C32.8636 116.183 32.7992 116.503 32.6703 116.82C32.5453 117.132 32.3695 117.417 32.1429 117.675C31.9164 117.933 31.6508 118.14 31.3461 118.296C31.0414 118.449 30.7094 118.525 30.35 118.525C29.9281 118.525 29.5629 118.443 29.2543 118.279C28.9457 118.115 28.6918 117.896 28.4926 117.623C28.2972 117.349 28.1508 117.044 28.0531 116.708C27.9594 116.369 27.9125 116.025 27.9125 115.677C27.9125 115.271 27.9691 114.89 28.0824 114.535C28.1957 114.179 28.3636 113.867 28.5863 113.597C28.809 113.324 29.0844 113.111 29.4125 112.958C29.7445 112.806 30.1273 112.73 30.5609 112.73C31.0492 112.73 31.4652 112.828 31.809 113.023C32.1527 113.218 32.432 113.48 32.6469 113.808C32.8656 114.136 33.0258 114.505 33.1273 114.916C33.2289 115.326 33.2797 115.748 33.2797 116.181V116.574C33.2797 117.015 33.2504 117.464 33.1918 117.921C33.1371 118.375 33.0297 118.808 32.8695 119.222C32.7133 119.636 32.4847 120.007 32.184 120.335C31.8832 120.66 31.4906 120.917 31.0062 121.109C30.5258 121.296 29.932 121.39 29.225 121.39H29.1136V120.47Z" fill="url(#paint6_linear_750_12988)"/>
<path d="M116.482 206.638H116.576V207.558H116.482C115.908 207.558 115.427 207.651 115.04 207.839C114.654 208.022 114.347 208.271 114.12 208.583C113.894 208.892 113.73 209.239 113.628 209.626C113.531 210.013 113.482 210.405 113.482 210.804V212.058C113.482 212.437 113.527 212.772 113.617 213.065C113.706 213.354 113.829 213.599 113.986 213.798C114.142 213.997 114.318 214.147 114.513 214.249C114.712 214.351 114.919 214.401 115.134 214.401C115.384 214.401 115.607 214.354 115.802 214.261C115.997 214.163 116.161 214.028 116.294 213.856C116.431 213.681 116.535 213.474 116.605 213.235C116.675 212.997 116.71 212.735 116.71 212.45C116.71 212.196 116.679 211.952 116.617 211.718C116.554 211.479 116.458 211.269 116.329 211.085C116.201 210.897 116.038 210.751 115.843 210.646C115.652 210.536 115.423 210.481 115.158 210.481C114.857 210.481 114.576 210.556 114.314 210.704C114.056 210.849 113.843 211.04 113.675 211.278C113.511 211.513 113.417 211.769 113.394 212.046L112.82 212.04C112.874 211.603 112.976 211.229 113.124 210.921C113.277 210.608 113.464 210.354 113.687 210.159C113.913 209.96 114.165 209.815 114.443 209.726C114.724 209.632 115.021 209.585 115.333 209.585C115.759 209.585 116.126 209.665 116.435 209.825C116.744 209.985 116.997 210.2 117.197 210.47C117.396 210.735 117.542 211.036 117.636 211.372C117.734 211.704 117.783 212.046 117.783 212.397C117.783 212.8 117.726 213.177 117.613 213.528C117.499 213.88 117.329 214.188 117.103 214.454C116.88 214.72 116.605 214.927 116.277 215.075C115.949 215.224 115.568 215.298 115.134 215.298C114.673 215.298 114.271 215.204 113.927 215.017C113.583 214.825 113.298 214.571 113.072 214.255C112.845 213.938 112.675 213.587 112.562 213.2C112.449 212.813 112.392 212.421 112.392 212.022V211.513C112.392 210.911 112.453 210.321 112.574 209.743C112.695 209.165 112.904 208.642 113.201 208.173C113.501 207.704 113.917 207.331 114.449 207.054C114.98 206.776 115.658 206.638 116.482 206.638Z" fill="url(#paint7_linear_750_12988)"/>
<line x1="193.545" y1="74.8172" x2="202.127" y2="68.8093" stroke="black"/>
<line x1="162.496" y1="44.9444" x2="166.788" y2="37.22" stroke="black"/>
<line x1="75.9424" y1="45.3655" x2="71.5241" y2="37.7129" stroke="black"/>
<line x1="44.17" y1="77.5033" x2="36.5174" y2="73.0851" stroke="black"/>
<line x1="199.517" y1="165.906" x2="191.865" y2="161.487" stroke="black"/>
<line x1="166.061" y1="199.854" x2="161.643" y2="192.202" stroke="black"/>
<line x1="38.1973" y1="167.511" x2="46.7801" y2="161.503" stroke="black"/>
<line x1="71.5237" y1="199.299" x2="76.9007" y2="189.985" stroke="black"/>
</g>
<defs>
<linearGradient id="paint0_linear_750_12988" x1="120" y1="0.0649414" x2="120" y2="239.065" gradientUnits="userSpaceOnUse">
<stop stop-color="#4D6A6D"/>
<stop offset="1" stop-color="#01825E"/>
</linearGradient>
<linearGradient id="paint1_linear_750_12988" x1="120" y1="132.978" x2="120" y2="139.075" gradientUnits="userSpaceOnUse">
<stop stop-color="#3A9E82"/>
<stop offset="1" stop-color="#3A9E82" stop-opacity="0"/>
</linearGradient>
<linearGradient id="paint2_linear_750_12988" x1="94.8148" y1="139.26" x2="83.8532" y2="208.933" gradientUnits="userSpaceOnUse">
<stop stop-color="#3A9E82"/>
<stop offset="1" stop-color="#3A9E82" stop-opacity="0"/>
</linearGradient>
<linearGradient id="paint3_linear_750_12988" x1="124.856" y1="132.391" x2="168.302" y2="172.454" gradientUnits="userSpaceOnUse">
<stop stop-color="#3A9E82"/>
<stop offset="1" stop-color="#3A9E82" stop-opacity="0"/>
</linearGradient>
<linearGradient id="paint4_linear_750_12988" x1="119.09" y1="22.0139" x2="119.09" y2="39.6868" gradientUnits="userSpaceOnUse">
<stop stop-color="#4D6A6D"/>
<stop offset="1" stop-color="#01825E"/>
</linearGradient>
<linearGradient id="paint5_linear_750_12988" x1="208.813" y1="110.378" x2="208.813" y2="128.051" gradientUnits="userSpaceOnUse">
<stop stop-color="#4D6A6D"/>
<stop offset="1" stop-color="#01825E"/>
</linearGradient>
<linearGradient id="paint6_linear_750_12988" x1="32.0846" y1="110.378" x2="32.0846" y2="128.051" gradientUnits="userSpaceOnUse">
<stop stop-color="#4D6A6D"/>
<stop offset="1" stop-color="#01825E"/>
</linearGradient>
<linearGradient id="paint7_linear_750_12988" x1="116.371" y1="204.181" x2="116.371" y2="223.213" gradientUnits="userSpaceOnUse">
<stop stop-color="#4D6A6D"/>
<stop offset="1" stop-color="#01825E"/>
</linearGradient>
<clipPath id="clip0_750_12988">
<rect width="239" height="239" fill="white" transform="translate(0.5 0.0649414)"/>
</clipPath>
</defs>
</svg>
