<svg width="234" height="239" viewBox="0 0 234 239" fill="none" xmlns="http://www.w3.org/2000/svg">
<path d="M129.151 0.0649414C96.6601 0.0649414 67.6394 14.5753 48.5013 37.3242C62.337 37.3595 92.9217 38.8613 97.0602 50.2889C77.6538 44.1886 56.7698 44.6144 42.2299 45.6012C39.6687 49.3588 37.3639 53.284 35.331 57.3503C51.248 53.164 110.098 55.652 113.534 68.0684C75.1476 58.6828 42.5097 63.7092 31.6643 65.6015C27.2348 76.9133 24.8018 89.1891 24.8018 102.023C24.8018 158.333 73.4254 238.065 131.055 238.065C160.26 238.065 186.172 217.589 204.63 190.064C188.765 202.065 155.101 218.945 134.407 207.525C175.627 202.993 205.116 181.835 213.313 175.598C226.047 151.841 233.5 124.985 233.5 102.023C233.5 45.713 186.782 0.0649414 129.151 0.0649414ZM129.15 76.5106C182.238 76.5106 225.275 90.4837 225.275 107.721C225.275 118.832 223.004 124.593 196.076 130.123C181.228 133.173 148.019 114.409 129.15 114.409C111.537 114.409 85.1382 135.245 70.9429 132.56C42.3506 127.152 33.0268 119.239 33.0268 107.721C33.0268 90.4837 76.063 76.5106 129.15 76.5106ZM171.528 96.6153C161.354 96.5549 150.527 98.2759 150.576 101.61C150.667 107.885 159.348 112.847 169.963 112.691C180.579 112.537 179.337 104.519 189.017 101.05C188.975 98.108 180.506 96.6688 171.528 96.6153ZM84.291 98.0682C75.3138 98.1211 66.8448 99.5619 66.8013 102.503C76.4818 105.973 75.24 113.991 85.8561 114.145C96.4717 114.3 105.152 109.338 105.244 103.062C105.292 99.7288 94.465 98.0078 84.291 98.0682ZM131.056 139.615C146.734 139.615 159.442 152.332 159.442 152.332C159.442 152.332 145.204 146.736 129.526 146.736C113.849 146.736 102.67 152.332 102.67 152.332C102.67 152.332 115.378 139.615 131.056 139.615ZM3.45803 197.374C5.65257 198.405 7.38992 177.047 29.8522 166.5C25.7546 162.234 23.5686 154.083 22.6583 148.608C6.12189 150.704 -5.13324 191.387 3.45803 197.374ZM31.9053 176.362C28.1108 176.336 23.1857 176.247 23.0923 184.898C22.8407 208.236 1.46758 233.758 2.81997 234.394C6.42602 236.089 27.8764 218.228 34.0943 204.439C36.1954 199.78 39.9121 176.417 31.9053 176.362Z" fill="url(#paint0_linear_750_13044)"/>
<defs>
<linearGradient id="paint0_linear_750_13044" x1="117" y1="0.0649414" x2="117" y2="238.065" gradientUnits="userSpaceOnUse">
<stop stop-color="#4D6A6D"/>
<stop offset="1" stop-color="#01825E"/>
</linearGradient>
</defs>
</svg>
