<svg width="30" height="30" viewBox="0 0 30 30" fill="none" xmlns="http://www.w3.org/2000/svg">
<path d="M27.7869 0.000113607H2.21311C1.63286 -0.00579167 1.07397 0.218731 0.659063 0.624416C0.244158 1.0301 0.00713392 1.58381 0 2.16405V27.8411C0.00842406 28.4205 0.246015 28.9729 0.66078 29.3776C1.07554 29.7822 1.6337 30.006 2.21311 30.0001H27.7869C28.3672 30.0047 28.9257 29.7794 29.3404 29.3735C29.7551 28.9676 29.9922 28.414 30 27.8337V2.15667C29.9897 1.57814 29.7514 1.02707 29.337 0.623242C28.9225 0.21942 28.3655 -0.00451467 27.7869 0.000113607Z" fill="#0076B2"/>
<path d="M4.44101 11.2452H8.89429V25.5739H4.44101V11.2452ZM6.66888 4.11401C7.17965 4.11401 7.67895 4.26551 8.1036 4.54932C8.52826 4.83314 8.85919 5.23654 9.05454 5.70847C9.24989 6.18041 9.30088 6.69968 9.20106 7.2006C9.10123 7.70152 8.85508 8.16158 8.49374 8.52258C8.1324 8.88357 7.6721 9.12929 7.17109 9.22864C6.67008 9.32798 6.15085 9.2765 5.6791 9.0807C5.20735 8.8849 4.80427 8.55358 4.52086 8.12866C4.23744 7.70373 4.08643 7.20429 4.08692 6.69352C4.08757 6.00917 4.35988 5.35307 4.84402 4.86938C5.32817 4.3857 5.98453 4.11401 6.66888 4.11401ZM11.6877 11.2452H15.9566V13.2124H16.0156C16.6107 12.0861 18.0615 10.8984 20.2279 10.8984C24.7377 10.8886 25.5738 13.8566 25.5738 17.705V25.5739H21.1205V18.6025C21.1205 16.9427 21.091 14.8058 18.8066 14.8058C16.5222 14.8058 16.1336 16.6157 16.1336 18.4943V25.5739H11.6877V11.2452Z" fill="white"/>
</svg>
