<svg width="43" height="42" viewBox="0 0 43 42" fill="none" xmlns="http://www.w3.org/2000/svg">
<path d="M42.5 0C40.3032 3.99723 36.0643 1.20441 32.6813 1.10701C23.1137 1.03674 22.825 5.26593 18.0608 7.8714C17.11 6.99135 15.6008 6.43275 13.2246 6.54368C11.5765 6.62062 10.0849 7.10052 8.98489 7.93974C7.70802 8.88285 6.77727 10.1837 6.71446 11.4389C8.89052 10.972 10.9884 11.0537 11.4609 11.9184C12.6517 14.0978 9.24968 13.3203 6.83097 13.9734C6.70183 14.0082 6.57518 14.0445 6.44977 14.081C6.16449 14.7602 5.82644 15.4099 5.82644 15.8799C5.82644 17.3682 7.24259 16.4209 7.8595 17.7138C7.94746 17.8982 8.25043 18.4713 9.12582 19.1922C9.26727 19.3089 13.8856 16.1082 14.0395 16.2148C12.5045 18.9902 10.026 19.9687 9.78392 20.0771C7.58644 21.061 4.94898 21.8706 4.02133 23.4261L3.96732 23.4113C3.96732 23.4113 1.1135 29.1576 0.5 32.0106C0.559498 33.4815 3.15639 33.1124 3.15639 33.1124L7.24642 32.0773L7.7313 33.5652L20.0946 20.3356C17.3917 18.9593 18.2274 16.9464 17.8257 15.1731C19.2523 13.1992 20.0918 12.1815 19.3361 10.1949C20.0731 9.55221 21.0141 8.89638 22.0896 8.72125C24.2902 8.3629 28.2997 10.1439 30.4707 10.1678C33.3452 10.1996 34.8907 8.91219 36.0947 7.36559C34.9911 7.67317 34.5724 7.673 35.1942 6.04243C33.7272 6.49695 32.7817 8.02739 30.1242 7.66957C27.6542 7.33696 23.9077 6.7016 21.8395 7.28716C25.35 5.7569 28.1047 4.19089 31.8534 3.82113C36.2462 4.0869 40.1893 6.71214 42.4999 2.3253L42.5 0ZM30.2093 12.022L26.1735 16.3314L27.885 17.3601L31.9213 13.0506L30.2093 12.022ZM8.94443 12.1675C8.39571 12.1675 7.84688 12.2725 7.84688 12.4823C8.07069 12.7408 8.85968 12.951 9.23954 12.9583C9.84569 12.9583 10.042 12.9018 10.042 12.4823C10.042 12.2725 9.49316 12.1675 8.94443 12.1675ZM23.5202 16.3092L22.3094 17.554L27.3877 20.5476L28.5984 19.3029L23.5202 16.3092ZM23.0626 19.4697L5.41741 38.3508C5.41741 38.3508 4.35711 39.0908 5.41223 39.824C6.49561 40.5767 7.33913 39.5031 7.33913 39.5031L24.984 20.6218L23.0626 19.4697ZM25.0215 23.151C25.0215 23.151 22.881 25.5088 21.7911 26.6747C17.4299 31.3402 8.78249 40.4375 8.55237 40.5656L8.5594 42H19.8692L21.4591 31.8764L26.0804 32.7263C26.0804 32.7263 27.9341 32.8944 27.8587 31.5122C27.38 29.6003 25.8692 24.9369 25.0215 23.151ZM22.6712 27.4436L23.5762 29.3416L22.0766 29.014L22.6712 27.4436Z" fill="url(#paint0_linear_1238_1850)"/>
<defs>
<linearGradient id="paint0_linear_1238_1850" x1="21.5" y1="0" x2="21.5" y2="42" gradientUnits="userSpaceOnUse">
<stop stop-color="#4D6A6D"/>
<stop offset="1" stop-color="#01825E"/>
</linearGradient>
</defs>
</svg>
