<svg width="45" height="45" viewBox="0 0 45 45" fill="none" xmlns="http://www.w3.org/2000/svg">
<path d="M6.75 6.75C6.15326 6.75 5.58097 6.98705 5.15901 7.40901C4.73705 7.83097 4.5 8.40326 4.5 9C4.5 9.59674 4.73705 10.169 5.15901 10.591C5.58097 11.0129 6.15326 11.25 6.75 11.25H31.5C32.0967 11.25 32.669 11.0129 33.091 10.591C33.5129 10.169 33.75 9.59674 33.75 9C33.75 8.40326 33.5129 7.83097 33.091 7.40901C32.669 6.98705 32.0967 6.75 31.5 6.75H6.75ZM6.75 15.75C6.15326 15.75 5.58097 15.9871 5.15901 16.409C4.73705 16.831 4.5 17.4033 4.5 18C4.5 18.5967 4.73705 19.169 5.15901 19.591C5.58097 20.0129 6.15326 20.25 6.75 20.25H18C18.5967 20.25 19.169 20.0129 19.591 19.591C20.0129 19.169 20.25 18.5967 20.25 18C20.25 17.4033 20.0129 16.831 19.591 16.409C19.169 15.9871 18.5967 15.75 18 15.75H6.75ZM6.75 24.75C6.15326 24.75 5.58097 24.9871 5.15901 25.409C4.73705 25.831 4.5 26.4033 4.5 27C4.5 27.5967 4.73705 28.169 5.15901 28.591C5.58097 29.0129 6.15326 29.25 6.75 29.25H15.75C16.3467 29.25 16.919 29.0129 17.341 28.591C17.7629 28.169 18 27.5967 18 27C18 26.4033 17.7629 25.831 17.341 25.409C16.919 24.9871 16.3467 24.75 15.75 24.75H6.75ZM29.25 36C29.25 36.5967 29.4871 37.169 29.909 37.591C30.331 38.0129 30.9033 38.25 31.5 38.25C32.0967 38.25 32.669 38.0129 33.091 37.591C33.5129 37.169 33.75 36.5967 33.75 36V23.4315L36.6592 26.3407C37.0836 26.7506 37.652 26.9774 38.2419 26.9723C38.8318 26.9671 39.3962 26.7305 39.8133 26.3133C40.2305 25.8962 40.4671 25.3318 40.4723 24.7419C40.4774 24.152 40.2506 23.5836 39.8408 23.1593L33.0907 16.4093C32.6688 15.9874 32.0966 15.7505 31.5 15.7505C30.9034 15.7505 30.3312 15.9874 29.9093 16.4093L23.1593 23.1593C22.9444 23.3668 22.7729 23.6151 22.655 23.8896C22.5371 24.1641 22.475 24.4593 22.4724 24.7581C22.4698 25.0569 22.5268 25.3531 22.6399 25.6296C22.753 25.9062 22.9201 26.1574 23.1314 26.3686C23.3426 26.5799 23.5938 26.747 23.8704 26.8601C24.1469 26.9732 24.4431 27.0302 24.7419 27.0276C25.0407 27.025 25.3359 26.9629 25.6104 26.845C25.8849 26.7271 26.1332 26.5556 26.3407 26.3407L29.25 23.4315V36Z" fill="#017A5D"/>
</svg>
