<svg width="240" height="240" viewBox="0 0 240 240" fill="none" xmlns="http://www.w3.org/2000/svg">
<rect width="239" height="239" transform="translate(0.5 0.0649414)" fill="white"/>
<path d="M159.534 44.0649C158.229 46.6584 157.759 49.7147 158.798 52.2416C161.581 54.4054 175.633 58.4652 174.417 63.9676C174.158 64.8738 174.058 65.3618 173.917 66.0251C171.472 63.3611 166.497 62.0669 164.7 62.4611C163.104 62.7932 161.489 63.6624 159.93 63.7404C157.953 63.7278 156.185 63.1433 154.67 62.0649C155.74 65.5871 159.575 68.1841 161.953 67.7411C165.692 66.8517 169.727 69.2073 172.45 70.368C170.781 75.8267 165.179 73.2565 165.179 73.2565L124.901 62.2209L118.284 56.5231L112.556 63.5021L141.936 74.9752L102.291 76.0292L92.4121 71.1116L78.9452 80.4131L139.389 85.6477L120.822 109.052H153.595C159.984 102.851 174.408 88.8875 174.618 89.0478C178.868 100.853 185.603 96.5399 190.742 89.6583C192.234 87.6618 193.87 94.527 194.713 83.3508C194.924 82.9569 195.115 82.5588 195.298 82.1574C189.343 79.1402 179.252 84.415 184.789 75.0713C186.485 72.2112 191.651 72.9855 196.968 76.6349C197.16 70.624 196.619 59.9374 191.853 57.5767C186.948 55.147 180.615 55.4184 178.206 58.6329C174.921 51.9848 165.134 51.1223 161.259 50.4551C160.118 48.3169 159.753 46.3284 159.534 44.0649ZM188.684 76.9866C190.845 78.8802 190.999 79.3273 192.447 79.3891C192.975 78.987 194.138 77.5723 193.06 77.2741L189.414 76.4065C189.037 76.3261 188.747 76.6609 188.684 76.9866ZM117.577 113.145L74.1666 167.868L68.6514 169.547C68.6514 169.547 64.391 181.289 62.4302 195.171C64.9601 196.791 68.1744 192.012 68.1744 192.012C68.1744 192.012 67.811 197.167 70.3677 195.849C75.0241 184.597 80.2321 172.908 80.2321 172.908L132.99 124.908L139.925 127.107L149.094 130.016L128.43 153.145L124.718 148.36C124.718 148.36 113.382 163.353 109.093 174.442C110.457 176.309 115.808 171.433 115.808 171.433C115.808 171.433 114.034 175.22 116.446 175.1C122.328 168.525 126.25 163.353 126.25 163.353L170.123 124.542L154.192 113.145H117.577Z" fill="url(#paint0_linear_750_13024)"/>
<path d="M29.2467 98.3102C28.3539 97.299 27.9718 96.1281 28.1005 94.7973C28.2291 93.4666 28.8301 92.3744 29.9033 91.5207L51.3714 74.4023C52.4448 73.5464 53.6822 73.1737 55.0836 73.2844C56.485 73.395 57.6309 73.9559 58.5214 74.9669L65.015 82.3209L68.9183 79.2084C69.9917 78.3525 71.2291 77.9799 72.6305 78.0905C74.0319 78.2012 75.1778 78.762 76.0683 79.773L82.5619 87.127C83.4547 88.1382 83.8368 89.3092 83.7081 90.6399C83.5795 91.9706 82.9785 93.0628 81.9053 93.9165L78.002 97.0289L84.4956 104.383C85.3884 105.394 85.7705 106.565 85.6419 107.896C85.5132 109.227 84.9122 110.319 83.8391 111.172L62.371 128.291C61.2976 129.147 60.0601 129.519 58.6587 129.409C57.2573 129.298 56.1114 128.737 55.2209 127.726L29.2467 98.3102ZM68.2617 85.9979L74.7553 93.3519L78.6586 90.2395L72.165 82.8854L68.2617 85.9979Z" fill="url(#paint1_linear_750_13024)"/>
<defs>
<linearGradient id="paint0_linear_750_13024" x1="129.715" y1="44.0649" x2="129.715" y2="196.065" gradientUnits="userSpaceOnUse">
<stop stop-color="#4D6A6D"/>
<stop offset="1" stop-color="#01825E"/>
</linearGradient>
<linearGradient id="paint1_linear_750_13024" x1="79.3151" y1="83.45" x2="43.8087" y2="114.802" gradientUnits="userSpaceOnUse">
<stop stop-color="#4D6A6D"/>
<stop offset="1" stop-color="#01825E"/>
</linearGradient>
</defs>
</svg>
