<svg width="45" height="45" viewBox="0 0 45 45" fill="none" xmlns="http://www.w3.org/2000/svg">
<path d="M6.75 27V33.75C6.75 37.4782 13.8015 40.5 22.5 40.5C31.1985 40.5 38.25 37.4782 38.25 33.75V27C38.25 30.7282 31.1985 33.75 22.5 33.75C13.8015 33.75 6.75 30.7282 6.75 27Z" fill="#017A5D"/>
<path d="M6.75 15.75V22.5C6.75 26.2282 13.8015 29.25 22.5 29.25C31.1985 29.25 38.25 26.2282 38.25 22.5V15.75C38.25 19.4782 31.1985 22.5 22.5 22.5C13.8015 22.5 6.75 19.4782 6.75 15.75Z" fill="#017A5D"/>
<path d="M38.25 11.25C38.25 14.9782 31.1985 18 22.5 18C13.8015 18 6.75 14.9782 6.75 11.25C6.75 7.52175 13.8015 4.5 22.5 4.5C31.1985 4.5 38.25 7.52175 38.25 11.25Z" fill="#017A5D"/>
</svg>
