<svg width="30" height="30" viewBox="0 0 30 30" fill="none" xmlns="http://www.w3.org/2000/svg">
<path d="M28.3447 0H1.65526C0.741085 0 0 0.741085 0 1.65526V28.3447C0 29.2589 0.741085 30 1.65526 30H28.3447C29.2589 30 30 29.2589 30 28.3447V1.65526C30 0.741085 29.2589 0 28.3447 0Z" fill="#3D5A98"/>
<path d="M20.6972 29.9974V18.3802H24.5958L25.1788 13.8529H20.6972V10.9632C20.6972 9.65269 21.0622 8.75788 22.9405 8.75788H25.3385V4.70212C24.1773 4.5811 23.0104 4.52356 21.8429 4.52975C18.3904 4.52975 16.0127 6.63368 16.0127 10.5145V13.8529H12.1141V18.3802H16.0127V29.9974H20.6972Z" fill="white"/>
</svg>
