<svg width="58" height="60" viewBox="0 0 58 60" fill="none" xmlns="http://www.w3.org/2000/svg">
<path d="M43.8634 0C43.3795 1.01476 43.2051 2.2106 43.5905 3.19932C44.6225 4.04595 49.834 5.63444 49.383 7.7874C49.287 8.14199 49.2498 8.33292 49.1974 8.59243C48.2909 7.55008 46.4458 7.0437 45.7794 7.19796C45.1875 7.32787 44.5886 7.66797 44.0105 7.69848C43.2773 7.69355 42.6214 7.46487 42.0597 7.04293C42.4566 8.42107 43.8788 9.43722 44.7607 9.26385C46.1472 8.91589 47.6437 9.83758 48.6536 10.2917C48.0344 12.4276 45.9569 11.4219 45.9569 11.4219L31.0197 7.10396L28.5655 4.87456L26.4414 7.60525L37.3371 12.0944L22.6344 12.5068L18.9708 10.5827L13.9765 14.2221L36.3927 16.2703L29.5067 25.4279H41.6611C44.0304 23.0014 49.3797 17.5379 49.4576 17.6006C51.0338 22.2195 53.5315 20.5321 55.4374 17.8395C55.9905 17.0583 56.5975 19.7445 56.91 15.3715C56.9884 15.2174 57.0591 15.0616 57.1271 14.9046C54.9186 13.724 51.176 15.7879 53.2295 12.132C53.8585 11.0129 55.7745 11.3159 57.7462 12.7438C57.8175 10.3919 57.6168 6.21047 55.8494 5.28678C54.0303 4.33613 51.6815 4.4423 50.7882 5.70009C49.5698 3.09884 45.9404 2.76136 44.5031 2.50031C44.0801 1.66369 43.9449 0.885625 43.8634 0ZM20.7933 9.1284L20.235 9.75005L22.2119 10.8061L23.5412 9.1284H20.7933ZM54.674 12.8814C55.4754 13.6223 55.5327 13.7972 56.0696 13.8214C56.2653 13.6641 56.6968 13.1106 56.2971 12.9939L54.9447 12.6544C54.8051 12.623 54.6973 12.754 54.674 12.8814ZM15.6697 15.6602L14.9408 16.4714H17.6884L18.4176 15.6602H15.6697ZM10.8573 17.7557L9.38726 20.1222H11.3295L11.9985 19.1338H17.216L16.2437 20.2033H18.1979L20.1579 17.8369L10.8573 17.7557ZM12.7761 20.211L0 38.6448L2.8208 37.9489L14.9015 20.2111L12.7761 20.211ZM28.3034 27.0292L12.2043 48.4408L10.1589 49.098C10.1589 49.098 8.57889 53.6923 7.85173 59.1238C8.78996 59.7576 9.982 57.8879 9.982 57.8879C9.982 57.8879 9.84725 59.9051 10.7954 59.3893C12.5223 54.9868 14.4537 50.4132 14.4537 50.4132L34.0195 31.6316L36.5912 32.4921L39.9916 33.6303L32.3284 42.6803L30.9517 40.808C30.9517 40.808 26.7477 46.6745 25.1569 51.0132C25.6628 51.7437 27.6473 49.8359 27.6473 49.8359C27.6473 49.8359 26.9896 51.3176 27.884 51.2706C30.0654 48.698 31.52 46.6743 31.52 46.6743L47.7904 31.4886L41.8822 27.0292H28.3034Z" fill="#017A5D"/>
</svg>
