<svg width="325" height="171" viewBox="0 0 325 171" fill="none" xmlns="http://www.w3.org/2000/svg">
<path d="M207.314 5.69727C202.67 15.6528 193.708 8.69698 186.556 8.45439C166.33 8.27939 165.72 18.8126 155.648 25.3019C153.638 23.11 150.447 21.7187 145.424 21.995C141.94 22.1866 138.786 23.3819 136.461 25.472C133.762 27.821 131.794 31.0609 131.661 34.187C136.261 33.0242 140.696 33.2278 141.695 35.3814C144.213 40.8093 137.021 38.8729 131.907 40.4995C131.634 40.5861 131.367 40.6767 131.102 40.7675C130.498 42.4591 129.784 44.0774 129.784 45.2479C129.784 48.9546 132.778 46.5954 134.082 49.8154C134.268 50.2746 134.908 51.7021 136.759 53.4976C137.058 53.7881 146.821 45.8164 147.147 46.082C143.901 52.9945 138.662 55.4314 138.15 55.7015C133.505 58.152 127.929 60.1684 125.968 64.0425L125.854 64.0057C125.854 64.0057 119.82 78.3174 118.523 85.4231C118.649 89.0865 124.139 88.1673 124.139 88.1673L132.786 85.5893L133.811 89.295L159.947 56.3453C154.233 52.9175 156 47.9042 155.151 43.4876C158.167 38.5712 159.942 36.0366 158.344 31.0889C159.902 29.4881 161.891 27.8547 164.165 27.4185C168.817 26.526 177.293 30.9618 181.883 31.0213C187.96 31.1005 191.227 27.894 193.773 24.0421C191.439 24.8081 190.554 24.8077 191.869 20.7466C188.768 21.8786 186.769 25.6904 181.15 24.7992C175.929 23.9708 168.009 22.3883 163.636 23.8467C171.058 20.0355 176.881 16.1351 184.806 15.2142C194.093 15.8761 202.429 22.4146 207.313 11.4887L207.314 5.69727ZM181.331 35.6393L172.799 46.3723L176.417 48.9345L184.95 38.2011L181.331 35.6393ZM136.375 36.0018C135.215 36.0018 134.055 36.2632 134.055 36.7858C134.528 37.4296 136.196 37.9533 136.999 37.9714C138.281 37.9714 138.696 37.8305 138.696 36.7858C138.696 36.2632 137.535 36.0018 136.375 36.0018ZM167.189 46.3172L164.63 49.4173L175.365 56.8734L177.925 53.7733L167.189 46.3172ZM166.222 54.1887L128.919 101.214C128.919 101.214 126.678 103.057 128.908 104.883C131.198 106.758 132.982 104.084 132.982 104.084L170.284 57.0582L166.222 54.1887ZM170.363 63.3574C170.363 63.3574 165.838 69.2297 163.534 72.1336C154.314 83.7534 136.033 106.411 135.547 106.73L135.561 110.303H159.471L162.832 85.0889L172.602 87.2057C172.602 87.2057 176.521 87.6244 176.361 84.1819C175.349 79.4202 172.155 67.8054 170.363 63.3574ZM165.395 74.0485L167.308 78.7757L164.137 77.9598L165.395 74.0485Z" fill="#017A5D"/>
<path d="M80.679 141.92C80.039 143.52 79.559 145.55 79.239 148.01C78.919 150.45 78.759 152.78 78.759 155C78.759 157.22 78.859 159.47 79.059 161.75C79.059 161.81 78.969 161.84 78.789 161.84C78.209 161.84 77.829 161.7 77.649 161.42C74.289 156.48 71.549 151.66 69.429 146.96C69.429 152.08 68.859 156.85 67.719 161.27C67.559 161.43 67.319 161.56 66.999 161.66C66.679 161.78 66.419 161.84 66.219 161.84C66.019 161.84 65.919 161.8 65.919 161.72L66.039 161.36C66.759 158.74 67.119 155.65 67.119 152.09C67.119 150.47 67.019 148.82 66.819 147.14C66.639 145.44 66.459 144.14 66.279 143.24L65.979 141.92L69.219 140.69L69.999 141.17C70.859 144.15 71.919 147.04 73.179 149.84C74.439 152.64 75.719 155.07 77.019 157.13C76.759 155.21 76.629 152.94 76.629 150.32C76.629 147.7 76.969 144.65 77.649 141.17L78.399 140.69L80.679 141.92ZM86.8257 147.62C86.8657 148.22 86.8857 148.84 86.8857 149.48C86.8857 152.96 86.2757 156.79 85.0557 160.97C84.7757 161.25 84.3957 161.39 83.9157 161.39C83.8157 161.39 83.7457 161.38 83.7057 161.36C83.6857 161.34 83.6857 161.31 83.7057 161.27C84.1857 158.41 84.4257 155.78 84.4257 153.38C84.4257 150.98 84.1757 148.82 83.6757 146.9L84.3957 146.45L86.8257 147.62ZM85.5957 144.65C85.0957 144.65 84.7057 144.48 84.4257 144.14C84.1657 143.8 84.0357 143.37 84.0357 142.85C84.0357 142.33 84.2657 141.88 84.7257 141.5C85.1857 141.1 85.8557 140.84 86.7357 140.72C87.3357 141.22 87.6357 141.82 87.6357 142.52C87.6357 143.2 87.4257 143.73 87.0057 144.11C86.5857 144.47 86.1157 144.65 85.5957 144.65ZM90.679 161.27C91.159 158.75 91.399 156.46 91.399 154.4C91.399 152.34 91.319 150.89 91.159 150.05C91.019 149.19 90.859 148.47 90.679 147.89C90.519 147.31 90.429 146.98 90.409 146.9L91.129 146.45L93.559 147.62C93.719 148.78 93.799 149.75 93.799 150.53C93.799 151.31 93.789 151.88 93.769 152.24C94.609 150.6 95.539 149.29 96.559 148.31C97.579 147.33 98.519 146.84 99.379 146.84C101.039 146.84 101.869 147.97 101.869 150.23C101.869 151.99 101.699 154.1 101.359 156.56C101.019 159 100.809 160.56 100.729 161.24C100.489 161.52 100.049 161.66 99.409 161.66C99.269 161.66 99.199 161.63 99.199 161.57C99.499 159.01 99.649 156.87 99.649 155.15C99.649 152.01 99.059 150.44 97.879 150.44C96.979 150.44 96.049 151.17 95.089 152.63C94.149 154.09 93.379 156.15 92.779 158.81H92.719C92.439 159.77 92.209 160.49 92.029 160.97C91.749 161.25 91.449 161.39 91.129 161.39C90.829 161.39 90.679 161.35 90.679 161.27ZM105.95 161.33C106.39 158.79 106.61 156.31 106.61 153.89C106.61 151.47 106.4 149.16 105.98 146.96L106.73 146.45L109.13 147.74C109.15 148.14 109.16 148.71 109.16 149.45C109.16 152.59 108.66 156.37 107.66 160.79C106.56 165.63 104.35 168.54 101.03 169.52L100.28 168.98L100.97 166.07C101.35 166.13 101.7 166.16 102.02 166.16C103.02 166.16 103.85 165.73 104.51 164.87C105.19 164.01 105.67 162.83 105.95 161.33ZM107.84 144.05C107.34 144.05 106.95 143.88 106.67 143.54C106.39 143.18 106.25 142.75 106.25 142.25C106.27 141.73 106.51 141.28 106.97 140.9C107.43 140.5 108.1 140.24 108.98 140.12C109.58 140.62 109.88 141.22 109.88 141.92C109.88 142.6 109.67 143.13 109.25 143.51C108.83 143.87 108.36 144.05 107.84 144.05ZM119.914 147.26L122.344 146.21L123.064 146.63C122.404 148.57 122.074 150.81 122.074 153.35C122.074 154.43 122.164 155.93 122.344 157.85C122.524 159.77 122.694 161.07 122.854 161.75C122.854 161.81 122.704 161.84 122.404 161.84C122.104 161.84 121.814 161.7 121.534 161.42C120.894 159.94 120.384 157.76 120.004 154.88C119.164 156.88 118.154 158.51 116.974 159.77C115.814 161.03 114.764 161.66 113.824 161.66C112.024 161.66 111.124 160.53 111.124 158.27C111.124 156.97 111.384 155.72 111.904 154.52C112.424 153.32 113.124 152.27 114.004 151.37C115.764 149.59 117.734 148.22 119.914 147.26ZM115.444 158.06C116.084 158.06 116.794 157.55 117.574 156.53C118.374 155.49 119.084 154.03 119.704 152.15C119.684 151.87 119.674 151.33 119.674 150.53C119.674 149.73 119.684 149.14 119.704 148.76C117.984 149.74 116.594 150.79 115.534 151.91C114.474 153.01 113.944 154.31 113.944 155.81C113.944 157.31 114.444 158.06 115.444 158.06ZM139.924 161.57C139.644 161.85 139.214 161.99 138.634 161.99C138.494 161.99 138.424 161.96 138.424 161.9C138.864 159.24 139.084 156.4 139.084 153.38C139.084 150.34 138.964 147.47 138.724 144.77C138.384 144.79 137.774 144.8 136.894 144.8C136.034 144.8 135.064 144.71 133.984 144.53L133.504 143.75L134.644 141.17C135.904 141.85 137.674 142.19 139.954 142.19C142.254 142.19 144.484 141.92 146.644 141.38C146.724 141.38 146.764 141.55 146.764 141.89C146.764 142.23 146.614 142.53 146.314 142.79C144.714 143.47 143.184 143.98 141.724 144.32C141.364 152.56 140.764 158.31 139.924 161.57ZM153.136 147.26L155.566 146.21L156.286 146.63C155.626 148.57 155.296 150.81 155.296 153.35C155.296 154.43 155.386 155.93 155.566 157.85C155.746 159.77 155.916 161.07 156.076 161.75C156.076 161.81 155.926 161.84 155.626 161.84C155.326 161.84 155.036 161.7 154.756 161.42C154.116 159.94 153.606 157.76 153.226 154.88C152.386 156.88 151.376 158.51 150.196 159.77C149.036 161.03 147.986 161.66 147.046 161.66C145.246 161.66 144.346 160.53 144.346 158.27C144.346 156.97 144.606 155.72 145.126 154.52C145.646 153.32 146.346 152.27 147.226 151.37C148.986 149.59 150.956 148.22 153.136 147.26ZM148.666 158.06C149.306 158.06 150.016 157.55 150.796 156.53C151.596 155.49 152.306 154.03 152.926 152.15C152.906 151.87 152.896 151.33 152.896 150.53C152.896 149.73 152.906 149.14 152.926 148.76C151.206 149.74 149.816 150.79 148.756 151.91C147.696 153.01 147.166 154.31 147.166 155.81C147.166 157.31 147.666 158.06 148.666 158.06ZM168.068 146.84L167.108 149.51C166.188 148.91 165.278 148.61 164.378 148.61C162.898 148.61 162.158 149.18 162.158 150.32C162.158 151.1 162.778 152.01 164.018 153.05C164.558 153.49 165.088 153.95 165.608 154.43C166.848 155.57 167.468 156.72 167.468 157.88C167.468 158.78 167.128 159.64 166.448 160.46C166.068 160.9 165.448 161.25 164.588 161.51C163.748 161.79 162.778 161.93 161.678 161.93C160.578 161.93 159.588 161.79 158.708 161.51C158.608 161.43 158.488 161.25 158.348 160.97C158.228 160.67 158.168 160.46 158.168 160.34C158.168 160.22 158.188 160.16 158.228 160.16C158.288 160.16 158.438 160.19 158.678 160.25C159.278 160.41 160.038 160.49 160.958 160.49C161.878 160.49 162.648 160.29 163.268 159.89C163.908 159.49 164.228 158.98 164.228 158.36C164.228 157.74 163.968 157.13 163.448 156.53C162.948 155.93 162.388 155.39 161.768 154.91C161.168 154.43 160.608 153.84 160.088 153.14C159.588 152.42 159.338 151.7 159.338 150.98C159.338 150.34 159.548 149.77 159.968 149.27C160.408 148.75 160.908 148.32 161.468 147.98C162.828 147.18 164.808 146.61 167.408 146.27L168.068 146.84ZM181.273 147.35L180.493 150.53C180.153 150.45 179.803 150.41 179.443 150.41C178.303 150.41 177.183 150.91 176.083 151.91C176.663 153.51 177.463 155.25 178.483 157.13C179.523 158.99 180.543 160.47 181.543 161.57V161.6C181.543 161.82 181.213 161.93 180.553 161.93C180.373 161.93 180.253 161.92 180.193 161.9C179.113 160.98 177.983 159.74 176.803 158.18C175.623 156.6 174.773 155.3 174.253 154.28L174.223 154.25C173.383 155.69 172.833 157.21 172.573 158.81L172.453 158.93L171.973 161.06C171.853 161.2 171.653 161.32 171.373 161.42C171.113 161.52 170.913 161.57 170.773 161.57C170.633 161.57 170.563 161.52 170.563 161.42C171.403 157.5 171.823 153.63 171.823 149.81C171.823 145.99 171.433 142.76 170.653 140.12L171.403 139.64L173.803 140.78C174.003 142.28 174.103 144.02 174.103 146C174.103 147.96 173.863 150.53 173.383 153.71C175.203 150.01 177.573 147.7 180.493 146.78L181.273 147.35ZM184.429 161.27C184.909 158.75 185.149 156.46 185.149 154.4C185.149 152.34 185.069 150.89 184.909 150.05C184.769 149.19 184.609 148.47 184.429 147.89C184.269 147.31 184.179 146.98 184.159 146.9L184.879 146.45L187.309 147.62C187.469 149 187.549 150.04 187.549 150.74C187.549 151.42 187.549 151.83 187.549 151.97C188.329 150.41 189.189 149.17 190.129 148.25C191.089 147.31 191.979 146.84 192.799 146.84C193.619 146.84 194.229 147.15 194.629 147.77C195.029 148.37 195.229 149.13 195.229 150.05C195.229 150.97 195.199 151.82 195.139 152.6C195.919 150.88 196.819 149.49 197.839 148.43C198.859 147.37 199.789 146.84 200.629 146.84C201.489 146.84 202.119 147.15 202.519 147.77C202.919 148.37 203.119 149.14 203.119 150.08C203.119 151 203.079 151.97 202.999 152.99C202.919 153.99 202.829 154.85 202.729 155.57C202.649 156.27 202.519 157.24 202.339 158.48C202.179 159.7 202.059 160.62 201.979 161.24C201.739 161.52 201.309 161.66 200.689 161.66C200.569 161.66 200.509 161.63 200.509 161.57C200.769 158.71 200.899 156.57 200.899 155.15C200.899 152.01 200.339 150.44 199.219 150.44C198.359 150.44 197.479 151.17 196.579 152.63C195.699 154.09 194.969 156.15 194.389 158.81C194.309 159.35 194.209 160.16 194.089 161.24C193.849 161.52 193.409 161.66 192.769 161.66C192.669 161.66 192.619 161.63 192.619 161.57C192.879 158.71 193.009 156.57 193.009 155.15C193.009 152.01 192.449 150.44 191.329 150.44C190.609 150.44 189.859 150.98 189.079 152.06C188.299 153.12 187.609 154.65 187.009 156.65C186.749 158.03 186.339 159.47 185.779 160.97C185.499 161.25 185.199 161.39 184.879 161.39C184.579 161.39 184.429 161.35 184.429 161.27ZM214.22 147.26L216.65 146.21L217.37 146.63C216.71 148.57 216.38 150.81 216.38 153.35C216.38 154.43 216.47 155.93 216.65 157.85C216.83 159.77 217 161.07 217.16 161.75C217.16 161.81 217.01 161.84 216.71 161.84C216.41 161.84 216.12 161.7 215.84 161.42C215.2 159.94 214.69 157.76 214.31 154.88C213.47 156.88 212.46 158.51 211.28 159.77C210.12 161.03 209.07 161.66 208.13 161.66C206.33 161.66 205.43 160.53 205.43 158.27C205.43 156.97 205.69 155.72 206.21 154.52C206.73 153.32 207.43 152.27 208.31 151.37C210.07 149.59 212.04 148.22 214.22 147.26ZM209.75 158.06C210.39 158.06 211.1 157.55 211.88 156.53C212.68 155.49 213.39 154.03 214.01 152.15C213.99 151.87 213.98 151.33 213.98 150.53C213.98 149.73 213.99 149.14 214.01 148.76C212.29 149.74 210.9 150.79 209.84 151.91C208.78 153.01 208.25 154.31 208.25 155.81C208.25 157.31 208.75 158.06 209.75 158.06ZM229.152 146.84L228.192 149.51C227.272 148.91 226.362 148.61 225.462 148.61C223.982 148.61 223.242 149.18 223.242 150.32C223.242 151.1 223.862 152.01 225.102 153.05C225.642 153.49 226.172 153.95 226.692 154.43C227.932 155.57 228.552 156.72 228.552 157.88C228.552 158.78 228.212 159.64 227.532 160.46C227.152 160.9 226.532 161.25 225.672 161.51C224.832 161.79 223.862 161.93 222.762 161.93C221.662 161.93 220.672 161.79 219.792 161.51C219.692 161.43 219.572 161.25 219.432 160.97C219.312 160.67 219.252 160.46 219.252 160.34C219.252 160.22 219.272 160.16 219.312 160.16C219.372 160.16 219.522 160.19 219.762 160.25C220.362 160.41 221.122 160.49 222.042 160.49C222.962 160.49 223.732 160.29 224.352 159.89C224.992 159.49 225.312 158.98 225.312 158.36C225.312 157.74 225.052 157.13 224.532 156.53C224.032 155.93 223.472 155.39 222.852 154.91C222.252 154.43 221.692 153.84 221.172 153.14C220.672 152.42 220.422 151.7 220.422 150.98C220.422 150.34 220.632 149.77 221.052 149.27C221.492 148.75 221.992 148.32 222.552 147.98C223.912 147.18 225.892 146.61 228.492 146.27L229.152 146.84ZM239.657 147.29L238.757 149.39C237.777 149.59 236.777 149.7 235.757 149.72C235.377 155.04 234.877 158.88 234.257 161.24C234.017 161.52 233.597 161.66 232.997 161.66C232.857 161.66 232.787 161.63 232.787 161.57C233.227 158.73 233.447 155.97 233.447 153.29C233.447 152.31 233.417 151.1 233.357 149.66C232.297 149.54 231.467 149.4 230.867 149.24C230.747 149.18 230.617 148.98 230.477 148.64C230.357 148.28 230.287 148 230.267 147.8L230.387 147.62C231.167 147.78 232.127 147.86 233.267 147.86C233.147 145.66 233.037 144.18 232.937 143.42L233.657 142.91L236.087 144.2L235.907 147.71C236.967 147.59 238.117 147.29 239.357 146.81L239.657 147.29ZM250.681 149.96C250.461 150.88 250.021 151.71 249.361 152.45C248.701 153.19 247.951 153.78 247.111 154.22C245.571 155.02 244.221 155.53 243.061 155.75C243.141 156.75 243.401 157.49 243.841 157.97C244.281 158.45 244.811 158.69 245.431 158.69C247.191 158.69 248.781 157.21 250.201 154.25C250.221 154.13 250.321 154.07 250.501 154.07C250.681 154.07 250.951 154.21 251.311 154.49C250.451 156.57 249.391 158.29 248.131 159.65C246.891 160.99 245.651 161.66 244.411 161.66C243.171 161.66 242.201 161.21 241.501 160.31C240.821 159.41 240.481 158.2 240.481 156.68C240.481 154.58 241.051 152.64 242.191 150.86C242.811 149.9 243.681 149.06 244.801 148.34C245.941 147.6 247.291 147.05 248.851 146.69C250.071 147.11 250.681 148.2 250.681 149.96ZM247.171 149.06C246.331 149.06 245.461 149.55 244.561 150.53C243.661 151.49 243.161 152.83 243.061 154.55C244.721 154.11 245.991 153.47 246.871 152.63C247.771 151.77 248.221 150.93 248.221 150.11C248.221 149.81 248.131 149.56 247.951 149.36C247.771 149.16 247.511 149.06 247.171 149.06ZM262.615 147.08L261.895 150.53C261.635 150.45 261.285 150.41 260.845 150.41C260.405 150.41 259.985 150.55 259.585 150.83C259.185 151.11 258.815 151.59 258.475 152.27C258.135 152.95 257.845 153.66 257.605 154.4C257.365 155.14 257.125 155.93 256.885 156.77C256.645 157.61 256.445 158.31 256.285 158.87C256.145 159.41 255.855 160.27 255.415 161.45C255.155 161.75 254.785 161.9 254.305 161.9C254.145 161.9 254.065 161.86 254.065 161.78C254.585 159.24 254.845 156.72 254.845 154.22C254.845 151.7 254.535 149.28 253.915 146.96L254.635 146.45L257.065 147.74C257.205 149.18 257.275 150.45 257.275 151.55V151.97C258.515 149.07 260.085 147.25 261.985 146.51L262.615 147.08Z" fill="#017A5D"/>
<path d="M80.679 141.92C80.039 143.52 79.559 145.55 79.239 148.01C78.919 150.45 78.759 152.78 78.759 155C78.759 157.22 78.859 159.47 79.059 161.75C79.059 161.81 78.969 161.84 78.789 161.84C78.209 161.84 77.829 161.7 77.649 161.42C74.289 156.48 71.549 151.66 69.429 146.96C69.429 152.08 68.859 156.85 67.719 161.27C67.559 161.43 67.319 161.56 66.999 161.66C66.679 161.78 66.419 161.84 66.219 161.84C66.019 161.84 65.919 161.8 65.919 161.72L66.039 161.36C66.759 158.74 67.119 155.65 67.119 152.09C67.119 150.47 67.019 148.82 66.819 147.14C66.639 145.44 66.459 144.14 66.279 143.24L65.979 141.92L69.219 140.69L69.999 141.17C70.859 144.15 71.919 147.04 73.179 149.84C74.439 152.64 75.719 155.07 77.019 157.13C76.759 155.21 76.629 152.94 76.629 150.32C76.629 147.7 76.969 144.65 77.649 141.17L78.399 140.69L80.679 141.92ZM86.8257 147.62C86.8657 148.22 86.8857 148.84 86.8857 149.48C86.8857 152.96 86.2757 156.79 85.0557 160.97C84.7757 161.25 84.3957 161.39 83.9157 161.39C83.8157 161.39 83.7457 161.38 83.7057 161.36C83.6857 161.34 83.6857 161.31 83.7057 161.27C84.1857 158.41 84.4257 155.78 84.4257 153.38C84.4257 150.98 84.1757 148.82 83.6757 146.9L84.3957 146.45L86.8257 147.62ZM85.5957 144.65C85.0957 144.65 84.7057 144.48 84.4257 144.14C84.1657 143.8 84.0357 143.37 84.0357 142.85C84.0357 142.33 84.2657 141.88 84.7257 141.5C85.1857 141.1 85.8557 140.84 86.7357 140.72C87.3357 141.22 87.6357 141.82 87.6357 142.52C87.6357 143.2 87.4257 143.73 87.0057 144.11C86.5857 144.47 86.1157 144.65 85.5957 144.65ZM90.679 161.27C91.159 158.75 91.399 156.46 91.399 154.4C91.399 152.34 91.319 150.89 91.159 150.05C91.019 149.19 90.859 148.47 90.679 147.89C90.519 147.31 90.429 146.98 90.409 146.9L91.129 146.45L93.559 147.62C93.719 148.78 93.799 149.75 93.799 150.53C93.799 151.31 93.789 151.88 93.769 152.24C94.609 150.6 95.539 149.29 96.559 148.31C97.579 147.33 98.519 146.84 99.379 146.84C101.039 146.84 101.869 147.97 101.869 150.23C101.869 151.99 101.699 154.1 101.359 156.56C101.019 159 100.809 160.56 100.729 161.24C100.489 161.52 100.049 161.66 99.409 161.66C99.269 161.66 99.199 161.63 99.199 161.57C99.499 159.01 99.649 156.87 99.649 155.15C99.649 152.01 99.059 150.44 97.879 150.44C96.979 150.44 96.049 151.17 95.089 152.63C94.149 154.09 93.379 156.15 92.779 158.81H92.719C92.439 159.77 92.209 160.49 92.029 160.97C91.749 161.25 91.449 161.39 91.129 161.39C90.829 161.39 90.679 161.35 90.679 161.27ZM105.95 161.33C106.39 158.79 106.61 156.31 106.61 153.89C106.61 151.47 106.4 149.16 105.98 146.96L106.73 146.45L109.13 147.74C109.15 148.14 109.16 148.71 109.16 149.45C109.16 152.59 108.66 156.37 107.66 160.79C106.56 165.63 104.35 168.54 101.03 169.52L100.28 168.98L100.97 166.07C101.35 166.13 101.7 166.16 102.02 166.16C103.02 166.16 103.85 165.73 104.51 164.87C105.19 164.01 105.67 162.83 105.95 161.33ZM107.84 144.05C107.34 144.05 106.95 143.88 106.67 143.54C106.39 143.18 106.25 142.75 106.25 142.25C106.27 141.73 106.51 141.28 106.97 140.9C107.43 140.5 108.1 140.24 108.98 140.12C109.58 140.62 109.88 141.22 109.88 141.92C109.88 142.6 109.67 143.13 109.25 143.51C108.83 143.87 108.36 144.05 107.84 144.05ZM119.914 147.26L122.344 146.21L123.064 146.63C122.404 148.57 122.074 150.81 122.074 153.35C122.074 154.43 122.164 155.93 122.344 157.85C122.524 159.77 122.694 161.07 122.854 161.75C122.854 161.81 122.704 161.84 122.404 161.84C122.104 161.84 121.814 161.7 121.534 161.42C120.894 159.94 120.384 157.76 120.004 154.88C119.164 156.88 118.154 158.51 116.974 159.77C115.814 161.03 114.764 161.66 113.824 161.66C112.024 161.66 111.124 160.53 111.124 158.27C111.124 156.97 111.384 155.72 111.904 154.52C112.424 153.32 113.124 152.27 114.004 151.37C115.764 149.59 117.734 148.22 119.914 147.26ZM115.444 158.06C116.084 158.06 116.794 157.55 117.574 156.53C118.374 155.49 119.084 154.03 119.704 152.15C119.684 151.87 119.674 151.33 119.674 150.53C119.674 149.73 119.684 149.14 119.704 148.76C117.984 149.74 116.594 150.79 115.534 151.91C114.474 153.01 113.944 154.31 113.944 155.81C113.944 157.31 114.444 158.06 115.444 158.06ZM139.924 161.57C139.644 161.85 139.214 161.99 138.634 161.99C138.494 161.99 138.424 161.96 138.424 161.9C138.864 159.24 139.084 156.4 139.084 153.38C139.084 150.34 138.964 147.47 138.724 144.77C138.384 144.79 137.774 144.8 136.894 144.8C136.034 144.8 135.064 144.71 133.984 144.53L133.504 143.75L134.644 141.17C135.904 141.85 137.674 142.19 139.954 142.19C142.254 142.19 144.484 141.92 146.644 141.38C146.724 141.38 146.764 141.55 146.764 141.89C146.764 142.23 146.614 142.53 146.314 142.79C144.714 143.47 143.184 143.98 141.724 144.32C141.364 152.56 140.764 158.31 139.924 161.57ZM153.136 147.26L155.566 146.21L156.286 146.63C155.626 148.57 155.296 150.81 155.296 153.35C155.296 154.43 155.386 155.93 155.566 157.85C155.746 159.77 155.916 161.07 156.076 161.75C156.076 161.81 155.926 161.84 155.626 161.84C155.326 161.84 155.036 161.7 154.756 161.42C154.116 159.94 153.606 157.76 153.226 154.88C152.386 156.88 151.376 158.51 150.196 159.77C149.036 161.03 147.986 161.66 147.046 161.66C145.246 161.66 144.346 160.53 144.346 158.27C144.346 156.97 144.606 155.72 145.126 154.52C145.646 153.32 146.346 152.27 147.226 151.37C148.986 149.59 150.956 148.22 153.136 147.26ZM148.666 158.06C149.306 158.06 150.016 157.55 150.796 156.53C151.596 155.49 152.306 154.03 152.926 152.15C152.906 151.87 152.896 151.33 152.896 150.53C152.896 149.73 152.906 149.14 152.926 148.76C151.206 149.74 149.816 150.79 148.756 151.91C147.696 153.01 147.166 154.31 147.166 155.81C147.166 157.31 147.666 158.06 148.666 158.06ZM168.068 146.84L167.108 149.51C166.188 148.91 165.278 148.61 164.378 148.61C162.898 148.61 162.158 149.18 162.158 150.32C162.158 151.1 162.778 152.01 164.018 153.05C164.558 153.49 165.088 153.95 165.608 154.43C166.848 155.57 167.468 156.72 167.468 157.88C167.468 158.78 167.128 159.64 166.448 160.46C166.068 160.9 165.448 161.25 164.588 161.51C163.748 161.79 162.778 161.93 161.678 161.93C160.578 161.93 159.588 161.79 158.708 161.51C158.608 161.43 158.488 161.25 158.348 160.97C158.228 160.67 158.168 160.46 158.168 160.34C158.168 160.22 158.188 160.16 158.228 160.16C158.288 160.16 158.438 160.19 158.678 160.25C159.278 160.41 160.038 160.49 160.958 160.49C161.878 160.49 162.648 160.29 163.268 159.89C163.908 159.49 164.228 158.98 164.228 158.36C164.228 157.74 163.968 157.13 163.448 156.53C162.948 155.93 162.388 155.39 161.768 154.91C161.168 154.43 160.608 153.84 160.088 153.14C159.588 152.42 159.338 151.7 159.338 150.98C159.338 150.34 159.548 149.77 159.968 149.27C160.408 148.75 160.908 148.32 161.468 147.98C162.828 147.18 164.808 146.61 167.408 146.27L168.068 146.84ZM181.273 147.35L180.493 150.53C180.153 150.45 179.803 150.41 179.443 150.41C178.303 150.41 177.183 150.91 176.083 151.91C176.663 153.51 177.463 155.25 178.483 157.13C179.523 158.99 180.543 160.47 181.543 161.57V161.6C181.543 161.82 181.213 161.93 180.553 161.93C180.373 161.93 180.253 161.92 180.193 161.9C179.113 160.98 177.983 159.74 176.803 158.18C175.623 156.6 174.773 155.3 174.253 154.28L174.223 154.25C173.383 155.69 172.833 157.21 172.573 158.81L172.453 158.93L171.973 161.06C171.853 161.2 171.653 161.32 171.373 161.42C171.113 161.52 170.913 161.57 170.773 161.57C170.633 161.57 170.563 161.52 170.563 161.42C171.403 157.5 171.823 153.63 171.823 149.81C171.823 145.99 171.433 142.76 170.653 140.12L171.403 139.64L173.803 140.78C174.003 142.28 174.103 144.02 174.103 146C174.103 147.96 173.863 150.53 173.383 153.71C175.203 150.01 177.573 147.7 180.493 146.78L181.273 147.35ZM184.429 161.27C184.909 158.75 185.149 156.46 185.149 154.4C185.149 152.34 185.069 150.89 184.909 150.05C184.769 149.19 184.609 148.47 184.429 147.89C184.269 147.31 184.179 146.98 184.159 146.9L184.879 146.45L187.309 147.62C187.469 149 187.549 150.04 187.549 150.74C187.549 151.42 187.549 151.83 187.549 151.97C188.329 150.41 189.189 149.17 190.129 148.25C191.089 147.31 191.979 146.84 192.799 146.84C193.619 146.84 194.229 147.15 194.629 147.77C195.029 148.37 195.229 149.13 195.229 150.05C195.229 150.97 195.199 151.82 195.139 152.6C195.919 150.88 196.819 149.49 197.839 148.43C198.859 147.37 199.789 146.84 200.629 146.84C201.489 146.84 202.119 147.15 202.519 147.77C202.919 148.37 203.119 149.14 203.119 150.08C203.119 151 203.079 151.97 202.999 152.99C202.919 153.99 202.829 154.85 202.729 155.57C202.649 156.27 202.519 157.24 202.339 158.48C202.179 159.7 202.059 160.62 201.979 161.24C201.739 161.52 201.309 161.66 200.689 161.66C200.569 161.66 200.509 161.63 200.509 161.57C200.769 158.71 200.899 156.57 200.899 155.15C200.899 152.01 200.339 150.44 199.219 150.44C198.359 150.44 197.479 151.17 196.579 152.63C195.699 154.09 194.969 156.15 194.389 158.81C194.309 159.35 194.209 160.16 194.089 161.24C193.849 161.52 193.409 161.66 192.769 161.66C192.669 161.66 192.619 161.63 192.619 161.57C192.879 158.71 193.009 156.57 193.009 155.15C193.009 152.01 192.449 150.44 191.329 150.44C190.609 150.44 189.859 150.98 189.079 152.06C188.299 153.12 187.609 154.65 187.009 156.65C186.749 158.03 186.339 159.47 185.779 160.97C185.499 161.25 185.199 161.39 184.879 161.39C184.579 161.39 184.429 161.35 184.429 161.27ZM214.22 147.26L216.65 146.21L217.37 146.63C216.71 148.57 216.38 150.81 216.38 153.35C216.38 154.43 216.47 155.93 216.65 157.85C216.83 159.77 217 161.07 217.16 161.75C217.16 161.81 217.01 161.84 216.71 161.84C216.41 161.84 216.12 161.7 215.84 161.42C215.2 159.94 214.69 157.76 214.31 154.88C213.47 156.88 212.46 158.51 211.28 159.77C210.12 161.03 209.07 161.66 208.13 161.66C206.33 161.66 205.43 160.53 205.43 158.27C205.43 156.97 205.69 155.72 206.21 154.52C206.73 153.32 207.43 152.27 208.31 151.37C210.07 149.59 212.04 148.22 214.22 147.26ZM209.75 158.06C210.39 158.06 211.1 157.55 211.88 156.53C212.68 155.49 213.39 154.03 214.01 152.15C213.99 151.87 213.98 151.33 213.98 150.53C213.98 149.73 213.99 149.14 214.01 148.76C212.29 149.74 210.9 150.79 209.84 151.91C208.78 153.01 208.25 154.31 208.25 155.81C208.25 157.31 208.75 158.06 209.75 158.06ZM229.152 146.84L228.192 149.51C227.272 148.91 226.362 148.61 225.462 148.61C223.982 148.61 223.242 149.18 223.242 150.32C223.242 151.1 223.862 152.01 225.102 153.05C225.642 153.49 226.172 153.95 226.692 154.43C227.932 155.57 228.552 156.72 228.552 157.88C228.552 158.78 228.212 159.64 227.532 160.46C227.152 160.9 226.532 161.25 225.672 161.51C224.832 161.79 223.862 161.93 222.762 161.93C221.662 161.93 220.672 161.79 219.792 161.51C219.692 161.43 219.572 161.25 219.432 160.97C219.312 160.67 219.252 160.46 219.252 160.34C219.252 160.22 219.272 160.16 219.312 160.16C219.372 160.16 219.522 160.19 219.762 160.25C220.362 160.41 221.122 160.49 222.042 160.49C222.962 160.49 223.732 160.29 224.352 159.89C224.992 159.49 225.312 158.98 225.312 158.36C225.312 157.74 225.052 157.13 224.532 156.53C224.032 155.93 223.472 155.39 222.852 154.91C222.252 154.43 221.692 153.84 221.172 153.14C220.672 152.42 220.422 151.7 220.422 150.98C220.422 150.34 220.632 149.77 221.052 149.27C221.492 148.75 221.992 148.32 222.552 147.98C223.912 147.18 225.892 146.61 228.492 146.27L229.152 146.84ZM239.657 147.29L238.757 149.39C237.777 149.59 236.777 149.7 235.757 149.72C235.377 155.04 234.877 158.88 234.257 161.24C234.017 161.52 233.597 161.66 232.997 161.66C232.857 161.66 232.787 161.63 232.787 161.57C233.227 158.73 233.447 155.97 233.447 153.29C233.447 152.31 233.417 151.1 233.357 149.66C232.297 149.54 231.467 149.4 230.867 149.24C230.747 149.18 230.617 148.98 230.477 148.64C230.357 148.28 230.287 148 230.267 147.8L230.387 147.62C231.167 147.78 232.127 147.86 233.267 147.86C233.147 145.66 233.037 144.18 232.937 143.42L233.657 142.91L236.087 144.2L235.907 147.71C236.967 147.59 238.117 147.29 239.357 146.81L239.657 147.29ZM250.681 149.96C250.461 150.88 250.021 151.71 249.361 152.45C248.701 153.19 247.951 153.78 247.111 154.22C245.571 155.02 244.221 155.53 243.061 155.75C243.141 156.75 243.401 157.49 243.841 157.97C244.281 158.45 244.811 158.69 245.431 158.69C247.191 158.69 248.781 157.21 250.201 154.25C250.221 154.13 250.321 154.07 250.501 154.07C250.681 154.07 250.951 154.21 251.311 154.49C250.451 156.57 249.391 158.29 248.131 159.65C246.891 160.99 245.651 161.66 244.411 161.66C243.171 161.66 242.201 161.21 241.501 160.31C240.821 159.41 240.481 158.2 240.481 156.68C240.481 154.58 241.051 152.64 242.191 150.86C242.811 149.9 243.681 149.06 244.801 148.34C245.941 147.6 247.291 147.05 248.851 146.69C250.071 147.11 250.681 148.2 250.681 149.96ZM247.171 149.06C246.331 149.06 245.461 149.55 244.561 150.53C243.661 151.49 243.161 152.83 243.061 154.55C244.721 154.11 245.991 153.47 246.871 152.63C247.771 151.77 248.221 150.93 248.221 150.11C248.221 149.81 248.131 149.56 247.951 149.36C247.771 149.16 247.511 149.06 247.171 149.06ZM262.615 147.08L261.895 150.53C261.635 150.45 261.285 150.41 260.845 150.41C260.405 150.41 259.985 150.55 259.585 150.83C259.185 151.11 258.815 151.59 258.475 152.27C258.135 152.95 257.845 153.66 257.605 154.4C257.365 155.14 257.125 155.93 256.885 156.77C256.645 157.61 256.445 158.31 256.285 158.87C256.145 159.41 255.855 160.27 255.415 161.45C255.155 161.75 254.785 161.9 254.305 161.9C254.145 161.9 254.065 161.86 254.065 161.78C254.585 159.24 254.845 156.72 254.845 154.22C254.845 151.7 254.535 149.28 253.915 146.96L254.635 146.45L257.065 147.74C257.205 149.18 257.275 150.45 257.275 151.55V151.97C258.515 149.07 260.085 147.25 261.985 146.51L262.615 147.08Z" fill="#017A5D"/>
</svg>
