<svg width="30" height="24" viewBox="0 0 30 24" fill="none" xmlns="http://www.w3.org/2000/svg">
<path d="M29.5319 2.84106C28.4261 3.33097 27.2531 3.65254 26.052 3.79508C27.3031 3.04525 28.2637 1.85786 28.716 0.443094C27.5267 1.14884 26.2255 1.64609 24.8687 1.91335C23.7634 0.735876 22.1889 0 20.4461 0C17.1 0 14.3871 2.71278 14.3871 6.05866C14.3871 6.53359 14.4408 6.99595 14.544 7.43951C9.50859 7.18676 5.04419 4.77471 2.05581 1.10906C1.53439 2.0039 1.23561 3.04479 1.23561 4.155C1.23561 6.25708 2.30534 8.11148 3.93098 9.19804C2.96882 9.16791 2.02784 8.90804 1.18658 8.44013C1.18624 8.46551 1.18624 8.49089 1.18624 8.51639C1.18624 11.4519 3.2747 13.9008 6.04632 14.4574C5.15411 14.7 4.21826 14.7355 3.31023 14.5612C4.08117 16.9683 6.3188 18.7199 8.96998 18.7689C6.8964 20.3939 4.28386 21.3625 1.44533 21.3625C0.956212 21.3625 0.474011 21.3338 0 21.2779C2.68129 22.997 5.86601 24 9.28756 24C20.4321 24 26.5261 14.7677 26.5261 6.76131C26.5261 6.49852 26.5204 6.23724 26.5086 5.97745C27.6948 5.11997 28.7186 4.05789 29.5319 2.84106Z" fill="#55ACEE"/>
</svg>
